Coordinates
version=1
nRows=17
nColumns=36
inDegrees=yes

Units are S.I. units (second, meters, Newtons, ...)
If the header above contains a line with 'inDegrees', this indicates whether rotational values are in degrees (yes) or radians (no).

endheader
time	pelvis_tilt	pelvis_list	pelvis_rotation	pelvis_tx	pelvis_ty	pelvis_tz	hip_flexion_r	hip_adduction_r	hip_rotation_r	knee_angle_r	knee_angle_r_beta	ankle_angle_r	subtalar_angle_r	mtp_angle_r	hip_flexion_l	hip_adduction_l	hip_rotation_l	knee_angle_l	knee_angle_l_beta	ankle_angle_l	subtalar_angle_l	mtp_angle_l	lumbar_extension	lumbar_bending	lumbar_rotation	arm_flex_r	arm_add_r	arm_rot_r	elbow_flex_r	pro_sup_r	arm_flex_l	arm_add_l	arm_rot_l	elbow_flex_l	pro_sup_l
     15.33333330	     -0.75004202	    -14.48178267	     -2.92987224	     -0.18743534	      0.69253284	     -0.06582288	     70.23044909	      3.30448884	     -0.11491501	     85.82471118	      1.49792379	     16.71347201	     -5.32795824	     -7.49999987	     82.40964058	    -17.45492365	     16.66318390	     90.62490674	      1.58170301	      6.04580838	     -0.77753828	     -7.49999987	    -24.26131171	    -22.83587795	     11.04846897	     -6.66710223	    -13.06750074	     -8.87694095	     65.87147312	    110.85328067	     12.68437359	    -19.26050911	    -13.81161385	     35.33188633	    108.71843976
     15.35000000	     -0.25536603	    -14.29190080	     -3.22716486	     -0.17563562	      0.69533315	     -0.07062338	     69.41901712	      3.54593219	      0.28694613	     85.65435371	      1.49495049	     16.90826443	     -5.34579491	     -7.49999987	     81.27431739	    -17.82906097	     16.29545241	     90.51303648	      1.57975050	      6.43233202	     -0.70103938	     -7.49999987	    -23.72021116	    -22.72285887	     11.27931074	     -6.39682887	    -13.32931581	     -8.55108890	     64.45853650	    110.93998529	     12.07273066	    -19.39625959	    -13.59754204	     34.63777871	    108.83197851
     15.36666670	     -0.09379281	    -14.13285625	     -3.31435238	     -0.17520931	      0.69559809	     -0.07076574	     69.09710747	      3.46848632	      0.51171794	     85.63531152	      1.49461814	     16.82533377	     -5.47229706	     -7.49999987	     80.81109205	    -17.89927081	     16.02274281	     90.56323645	      1.58062666	      6.81706507	     -0.80500165	     -7.49999987	    -23.18962380	    -22.51881501	     10.94234667	     -5.96923570	    -13.70343759	     -7.60170530	     63.31333932	    111.53996033	     11.30624132	    -19.73034560	    -12.76065032	     33.89382874	    108.48655475
     15.38333330	      0.07986780	    -13.85871559	     -3.32653223	     -0.17626951	      0.69587776	     -0.06946058	     68.89144828	      3.36528059	      0.80893706	     85.80637640	      1.49760379	     16.84112196	     -5.64945790	     -7.49999987	     80.39917473	    -17.85826338	     15.71642099	     90.67097680	      1.58250708	      7.32122741	     -0.76601052	     -7.49999987	    -22.94589621	    -22.49812103	     10.52558899	     -5.64315965	    -13.90148478	     -7.00584591	     62.36299496	    111.65764924	     10.95915861	    -20.11632470	    -12.14470517	     33.55757405	    107.48881388
     15.40000000	      0.36534170	    -13.67066386	     -3.33216128	     -0.17630026	      0.69575115	     -0.06953653	     68.70284395	      3.19477942	      0.96099913	     85.93152881	      1.49978811	     16.79309733	     -5.74542168	     -7.49999987	     80.10157490	    -17.87877799	     15.51859910	     90.80669121	      1.58487574	      7.61290056	     -0.74384506	     -7.49999987	    -22.97364426	    -22.28250155	     10.21788379	     -5.75249681	    -14.01503980	     -7.12785384	     62.29263254	    112.03950601	     10.66878963	    -20.42260028	    -11.83320556	     33.92175784	    107.12830698
     15.41666670	      0.67239501	    -13.55535336	     -3.24439054	     -0.17670142	      0.69598928	     -0.06886445	     68.53687249	      3.01057483	      0.98306889	     86.05464963	      1.50193697	     16.79673721	     -5.69203629	     -7.49999987	     79.88330263	    -17.85407140	     15.34282858	     90.99073788	      1.58808796	      8.01157682	     -0.58948701	     -7.49999987	    -23.04746700	    -21.91226673	      9.98139180	     -6.08101415	    -14.11734189	     -7.22082857	     61.97620993	    112.13004192	     10.59958250	    -20.52819315	    -11.61264179	     33.96255273	    107.44751839
     15.43333330	      1.21939036	    -13.56000443	     -3.44394463	     -0.16364905	      0.69882648	     -0.07510951	     67.67203886	      3.21501730	      1.18069332	     85.84343339	      1.49825055	     16.82526369	     -6.03606972	     -7.49999987	     78.89697731	    -18.20147413	     15.18255792	     91.02969098	      1.58876782	      8.65954445	     -0.39009443	     -7.49999987	    -22.70800282	    -21.30408027	     10.34446130	     -6.60323586	    -14.23694050	     -7.22381476	     60.97723201	    111.64370828	     10.18997204	    -20.39810591	    -11.40802207	     33.69602652	    107.80569750
     15.45000000	      1.58333863	    -13.50644939	     -3.46087830	     -0.16534167	      0.69926514	     -0.07417667	     67.08984770	      3.12342070	      1.29957471	     85.80838955	      1.49763892	     16.81892136	     -6.11306522	     -7.49999987	     78.26935279	    -18.27716497	     15.05930979	     91.06717942	      1.58942212	      9.21887324	     -0.46255977	     -7.49999987	    -22.40976801	    -20.76825873	     10.52844925	     -7.01415297	    -14.42335683	     -7.04334595	     60.15738540	    110.92330965	     10.08515342	    -20.40864939	    -10.49694366	     32.97777662	    110.01382692
     15.46666670	      1.79687635	    -13.35343788	     -3.50039016	     -0.16572086	      0.69942432	     -0.07428624	     66.73665478	      2.99462932	      1.41972586	     85.88614366	      1.49899599	     17.11992783	     -6.21980442	     -7.49999987	     77.77226146	    -18.24138474	     14.88448528	     91.12108479	      1.59036295	      9.77355021	     -0.34774449	     -7.49999987	    -22.15905855	    -20.40189060	     10.31119157	     -6.74017595	    -14.70826436	     -6.54218832	     59.39420871	    111.06389486	      9.70529761	    -20.41402755	    -10.24099084	     32.53460469	    109.15932704
     15.48333330	      1.87167079	    -13.17917882	     -3.44244291	     -0.16670561	      0.69953157	     -0.07323363	     66.64182709	      2.73153086	      1.44798070	     85.96741545	      1.50041445	     17.10926585	     -6.32904655	     -7.49999987	     77.63257004	    -18.11630129	     14.65276672	     91.17230663	      1.59125694	      9.98825775	     -0.37925695	     -7.49999987	    -22.02809960	    -20.08068731	     10.24938256	     -6.63426875	    -14.88522599	     -6.39198257	     59.01212658	    111.10064881	      9.58943947	    -20.38595484	     -9.82357793	     32.29391560	    108.54533970
     15.50000000	      2.01619242	    -13.01231445	     -3.37670193	     -0.16652175	      0.69957439	     -0.07342193	     66.56835794	      2.46864213	      1.44050090	     86.11483547	      1.50298741	     17.17191176	     -6.50317266	     -7.49999987	     77.45385136	    -17.98662415	     14.41153643	     91.27004910	      1.59296287	     10.21697176	     -0.44620601	     -7.49999987	    -22.06762803	    -19.72141062	     10.24975208	     -6.80227795	    -14.92896185	     -6.60925379	     59.14237025	    110.81582515	      9.71220178	    -20.16177832	    -10.05367099	     32.22377342	    108.72727546
     15.51666670	      2.13257816	    -12.83790043	     -3.26562048	     -0.16735259	      0.69981055	     -0.07250997	     66.53312583	      2.14051441	      1.36854150	     86.27300378	      1.50574797	     17.37991993	     -6.44818306	     -7.49999987	     77.32695475	    -17.80513040	     14.17780426	     91.33810179	      1.59415061	     10.42661030	     -0.42306208	     -7.49999987	    -22.28051637	    -19.39862641	     10.00147772	     -6.86637526	    -14.96493149	     -6.57342855	     59.43117494	    110.91233872	      9.84560603	    -20.10070074	     -9.80117520	     32.29035740	    107.94217146
     15.53333330	      2.41172641	    -12.56576258	     -3.09813089	     -0.16722903	      0.70004019	     -0.07301353	     66.34376173	      1.72407214	      1.37072499	     86.50595083	      1.50981366	     17.54517260	     -6.34645191	     -7.49999987	     76.93312321	    -17.54728115	     13.83243057	     91.36702915	      1.59465549	     10.61558985	     -0.44609784	     -7.49999987	    -22.44307323	    -19.13219519	      9.59376145	     -6.59851832	    -15.04087445	     -5.96511796	     59.33365627	    110.56954457	      9.71934732	    -20.09178568	     -9.71700230	     32.29652472	    107.00391639
     15.55000000	      2.74421478	    -12.30842990	     -2.93690098	     -0.16799994	      0.70038172	     -0.07218878	     66.13949966	      1.30454235	      1.37040737	     86.66312522	      1.51255688	     17.60009014	     -6.22083446	     -7.49999987	     76.54200931	    -17.34213522	     13.52714712	     91.36544079	      1.59462776	     10.66815910	     -0.40873613	     -7.49999987	    -22.64787464	    -18.86189211	      9.36703383	     -6.38430297	    -14.84941151	     -5.70917447	     59.31771014	    110.35060695	      9.87833496	    -19.87845128	     -9.81721064	     32.26651516	    106.60648577
     15.56666670	      3.16045685	    -12.00010230	     -2.79883096	     -0.16800585	      0.70060970	     -0.07234480	     65.91114543	      0.91663588	      1.47776739	     86.84699313	      1.51576598	     17.67111183	     -6.02465417	     -7.49999987	     76.08583891	    -17.17573650	     13.17923700	     91.38819475	      1.59502490	     10.84342184	     -0.39338458	     -7.49999987	    -22.70987622	    -18.63038775	      9.24344950	     -6.21773018	    -14.69823790	     -5.60044374	     59.47300822	    110.49516798	      9.98771792	    -19.60409558	    -10.21653845	     32.25092292	    105.89639344
     15.58333330	      3.62560432	    -11.71570998	     -2.72155353	     -0.16914326	      0.70093426	     -0.07133020	     65.57939583	      0.63563131	      1.61481207	     86.99588754	      1.51836467	     17.66705630	     -5.91834850	     -7.49999987	     75.52429738	    -17.06039695	     12.88364606	     91.41944138	      1.59557025	     11.25356231	     -0.33111935	     -7.49999987	    -22.61726978	    -18.32349458	      9.18075532	     -5.80534020	    -14.77072318	     -5.08387346	     59.37529061	    110.38934617	     10.09828468	    -19.40452668	    -10.02512496	     32.03228653	    105.22783446
     15.60000000	      3.86762384	    -11.38653465	     -2.61604094	     -0.16883148	      0.70140241	     -0.07131323	     65.40167158	      0.24605719	      1.73793800	     87.14006903	      1.52088111	     17.95931315	     -5.78092619	     -7.49999987	     75.04382566	    -16.91707721	     12.47654163	     91.42261916	      1.59562572	     11.50441224	     -0.19283600	     -7.49999987	    -22.87790414	    -18.09378534	      9.01979603	     -5.68892050	    -14.68369796	     -5.30977464	     59.64936920	    111.20270427	     10.01441303	    -19.10272137	    -10.59715880	     31.86272717	    104.36943017
